<?xml version="1.0" encoding="utf-8"?>
<!-- Generator: Adobe Illustrator 22.0.0, SVG Export Plug-In . SVG Version: 6.00 Build 0)  -->
<svg version="1.1" id="Layer_1" xmlns="http://www.w3.org/2000/svg" xmlns:xlink="http://www.w3.org/1999/xlink" x="0px" y="0px"
	 viewBox="0 0 700 700" style="enable-background:new 0 0 700 700;" xml:space="preserve">
<style type="text/css">
	.st0{display:none;}
	.st1{fill:#FFFFFF;}
</style>
<path class="st0" d="M553.6,245.7c0.3,4.5,0.3,9.1,0.3,13.6c0,138.7-105.6,298.6-298.6,298.6c-59.5,0-114.7-17.2-161.1-47.1
	c8.4,1,16.6,1.3,25.3,1.3c49.1,0,94.2-16.6,130.3-44.8c-46.1-1-84.8-31.2-98.1-72.8c6.5,1,13,1.6,19.8,1.6c9.4,0,18.8-1.3,27.6-3.6
	c-48.1-9.7-84.1-52-84.1-103v-1.3c14,7.8,30.2,12.7,47.4,13.3c-28.3-18.8-46.8-51-46.8-87.4c0-19.5,5.2-37.4,14.3-53
	c51.7,63.7,129.3,105.3,216.4,109.8c-1.6-7.8-2.6-15.9-2.6-24c0-57.8,46.8-104.9,104.9-104.9c30.2,0,57.5,12.7,76.7,33.1
	c23.7-4.5,46.5-13.3,66.6-25.3c-7.8,24.4-24.4,44.8-46.1,57.8c21.1-2.3,41.6-8.1,60.4-16.2C591.9,212.3,574,230.8,553.6,245.7
	L553.6,245.7z"/>
<path class="st0" d="M350,235.1c-63.6,0-114.9,51.3-114.9,114.9S286.4,464.9,350,464.9S464.9,413.6,464.9,350S413.6,235.1,350,235.1
	z M350,424.7c-41.1,0-74.7-33.5-74.7-74.7s33.5-74.7,74.7-74.7s74.7,33.5,74.7,74.7S391.1,424.7,350,424.7L350,424.7z M496.4,230.4
	c0,14.9-12,26.8-26.8,26.8c-14.9,0-26.8-12-26.8-26.8s12-26.8,26.8-26.8S496.4,215.6,496.4,230.4z M572.5,257.6
	c-1.7-35.9-9.9-67.7-36.2-93.9c-26.2-26.2-58-34.4-93.9-36.2c-37-2.1-147.9-2.1-184.9,0c-35.8,1.7-67.6,9.9-93.9,36.1
	s-34.4,58-36.2,93.9c-2.1,37-2.1,147.9,0,184.9c1.7,35.9,9.9,67.7,36.2,93.9c26.3,26.2,58,34.4,93.9,36.2c37,2.1,147.9,2.1,184.9,0
	c35.9-1.7,67.7-9.9,93.9-36.2c26.2-26.2,34.4-58,36.2-93.9C574.7,405.4,574.7,294.6,572.5,257.6L572.5,257.6z M524.8,482.1
	c-7.8,19.6-22.9,34.7-42.6,42.6c-29.5,11.7-99.5,9-132.1,9s-102.7,2.6-132.1-9c-19.6-7.8-34.7-22.9-42.6-42.6
	c-11.7-29.5-9-99.5-9-132.1s-2.6-102.7,9-132.1c7.8-19.6,22.9-34.7,42.6-42.6c29.5-11.7,99.5-9,132.1-9s102.7-2.6,132.1,9
	c19.6,7.8,34.7,22.9,42.6,42.6c11.7,29.5,9,99.5,9,132.1S536.5,452.7,524.8,482.1z"/>
<path class="st0" d="M466.6,386l-43.9,88.2L378.1,386h-67.6l112.2,220l111.5-220H466.6z M316.4,94L165,386h89.2l62.2-116.1
	L378.1,386h88.5L316.4,94z"/>
<g>
	<path class="st1" d="M350.9,292.9c-27.9,0-58.6,27.7-58.6,72.7c0,25.1,13.8,40.8,36.1,40.8c24.3,0,58.2-27.7,58.2-72.7
		C386.5,308.2,373.2,292.9,350.9,292.9z"/>
	<path class="st1" d="M350,0C156.7,0,0,156.7,0,350s156.7,350,350,350s350-156.7,350-350S543.3,0,350,0z M447.7,473.4
		c-30.1,0-61.2,0-70.7-34.1c-17.6,22.7-48,38.3-75,38.3c-59.2,0-96-40.6-96-105.9c0-89.2,63.3-151.5,137.8-151.5
		c19.5,0,45.3,3.9,60,21.8l0-0.1c0.8-6.8,6.6-12,13.4-12h45c15.1,0,26.4,13.8,23.6,28.6l-23.4,121.1c-3.4,17.2-3.9,29.6,13.5,30
		c37.1-4,58.2-44.9,58.2-83.7c0-102.4-83.9-160-184-160c-101.5,0-184,82.5-184,184s82.5,184,184,184c35.3,0,69.9-10.2,99.4-29.2
		c10.2-6.5,23.7-4.2,31.4,5.1l10.2,12.4c9.1,11.1,6.5,27.6-5.6,35.4C445.3,583.9,398.2,598,350,598c-137.1,0-248-110.9-248-248
		c0-137.1,110.9-248,248-248c138,0,248,87.7,248,224C598,401.8,556.6,473.4,447.7,473.4z"/>
</g>
</svg>
