<?xml version="1.0" encoding="utf-8"?>
<!-- Generator: Adobe Illustrator 22.0.0, SVG Export Plug-In . SVG Version: 6.00 Build 0)  -->
<svg version="1.1" id="Layer_1" xmlns="http://www.w3.org/2000/svg" xmlns:xlink="http://www.w3.org/1999/xlink" x="0px" y="0px"
	 viewBox="0 0 700 700" style="enable-background:new 0 0 700 700;" xml:space="preserve">
<style type="text/css">
	.st0{fill:#FFFFFF;}
</style>
<g>
	<path class="st0" d="M350.9,292.9c-27.9,0-58.6,27.7-58.6,72.7c0,25.1,13.8,40.8,36.1,40.8c24.3,0,58.2-27.7,58.2-72.7
		C386.5,308.2,373.2,292.9,350.9,292.9z"/>
	<path class="st0" d="M350,0C156.7,0,0,156.7,0,350s156.7,350,350,350s350-156.7,350-350S543.3,0,350,0z M447.7,473.4
		c-30.1,0-61.2,0-70.7-34.1c-17.6,22.7-48,38.3-75,38.3c-59.2,0-96-40.6-96-105.9c0-89.2,63.3-151.5,137.8-151.5
		c19.5,0,45.3,3.9,60,21.8v-0.1c0.8-6.8,6.6-12,13.4-12h45c15.1,0,26.4,13.8,23.6,28.6l-23.4,121.1c-3.4,17.2-3.9,29.6,13.5,30
		c37.1-4,58.2-44.9,58.2-83.7c0-102.4-83.9-160-184-160c-101.5,0-184,82.5-184,184s82.5,184,184,184c35.3,0,69.9-10.2,99.4-29.2
		c10.2-6.5,23.7-4.2,31.4,5.1l10.2,12.4c9.1,11.1,6.5,27.6-5.6,35.4C445.3,583.9,398.2,598,350,598c-137.1,0-248-110.9-248-248
		s110.9-248,248-248c138,0,248,87.7,248,224C598,401.8,556.6,473.4,447.7,473.4z"/>
</g>
</svg>
