<?xml version="1.0" encoding="utf-8"?>
<!-- Generator: Adobe Illustrator 22.0.0, SVG Export Plug-In . SVG Version: 6.00 Build 0)  -->
<svg version="1.1" id="Layer_1" xmlns="http://www.w3.org/2000/svg" xmlns:xlink="http://www.w3.org/1999/xlink" x="0px" y="0px"
	 viewBox="0 0 700 700" style="enable-background:new 0 0 700 700;" xml:space="preserve">
<style type="text/css">
	.st0{fill:#FFFFFF;}
</style>
<g>
	<path class="st0" d="M242.6,318c22.8,20.1,38.4,48.3,42.4,80h35.6l74.3-120H267.4L242.6,318z"/>
	<path class="st0" d="M193.1,398h43.3c-3-14.6-9.9-27.7-19.6-38.2L193.1,398z"/>
	<path class="st0" d="M129.6,409.4l45.5-73.5c-5.5-1.2-11.2-1.9-17.1-1.9c-44.1,0-80,35.9-80,80s35.9,80,80,80
		c32.7,0,60.9-19.8,73.3-48H150C131.2,446,119.7,425.3,129.6,409.4z"/>
	<path class="st0" d="M542,334c-6.7,0-13.4,0.8-19.9,2.5l44.5,71.6c4.7,7.5,2.4,17.4-5.2,22l-13.6,8.4c-7.5,4.7-17.4,2.4-22-5.2
		l-44.4-71.6c-12.7,14.7-20.1,34.1-19.3,55.3c1.6,41.1,34.6,74.6,75.6,76.8c46.1,2.4,84.3-34.3,84.3-79.9
		C622,369.9,586.1,334,542,334z"/>
	<path class="st0" d="M350,0C156.7,0,0,156.7,0,350s156.7,350,350,350s350-156.7,350-350S543.3,0,350,0z M540.7,542
		c-68.8-0.7-126.6-58.9-126.7-127.7c-0.1-37.4,15.9-71,41.3-94.4l-14.9-24.1l-86,138.9c-4.4,7-12.1,11.3-20.4,11.3h-52
		c-14.2,55.2-64.3,96-124,96c-70.9,0-128.4-57.7-128-128.8C30.4,343,88.1,285.8,158.3,286c15.1,0,29.6,2.7,43,7.5l29.4-47.5H182
		c-13.1,0-23.8-10.5-24-23.6c-0.2-13.4,11.1-24.4,24.5-24.4H270c8.8,0,16,7.2,16,16v16h113.5l-14.9-24H334c-8.8,0-16-7.2-16-16v-16
		c0-8.8,7.2-16,16-16h64c8.3,0,16,4.3,20.4,11.3l77.7,125.2c14.4-5.5,30.1-8.6,46.4-8.5c71,0.3,128.6,59.1,127.5,130
		C668.9,486.2,611.3,542.7,540.7,542z"/>
</g>
</svg>
