<?xml version="1.0" encoding="utf-8"?>
<!-- Generator: Adobe Illustrator 22.0.0, SVG Export Plug-In . SVG Version: 6.00 Build 0)  -->
<svg version="1.1" id="Layer_1" xmlns="http://www.w3.org/2000/svg" xmlns:xlink="http://www.w3.org/1999/xlink" x="0px" y="0px"
	 viewBox="0 0 1000 1000" style="enable-background:new 0 0 1000 1000;" xml:space="preserve">
<style type="text/css">
	.st0{fill:#FFFFFF;}
</style>
<g>
	<path class="st0" d="M392.6,468c22.8,20.1,38.4,48.3,42.4,80h35.6l74.3-120H417.4L392.6,468z"/>
	<path class="st0" d="M343.1,548h43.3c-3-14.6-9.9-27.7-19.6-38.2L343.1,548z"/>
	<path class="st0" d="M279.6,559.4l45.5-73.5c-5.5-1.2-11.2-1.9-17.1-1.9c-44.1,0-80,35.9-80,80s35.9,80,80,80
		c32.7,0,60.9-19.8,73.3-48H300C281.2,596,269.7,575.3,279.6,559.4z"/>
	<path class="st0" d="M500,0C223.9,0,0,223.9,0,500s223.9,500,500,500s500-223.9,500-500S776.1,0,500,0z M820,566
		c-1.1,70.2-58.6,126.7-129.3,126c-68.8-0.7-126.6-58.9-126.7-127.7c-0.1-37.4,15.9-71,41.3-94.4l-14.9-24.1l-86,138.9
		c-4.4,7-12.1,11.3-20.4,11.3h-52c-14.2,55.2-64.3,96-124,96c-70.9,0-128.4-57.7-128-128.8c0.4-70.2,58.1-127.4,128.3-127.2
		c15.1,0,29.6,2.7,43,7.5l29.4-47.5H332c-13.1,0-23.8-10.5-24-23.6c-0.2-13.4,11.1-24.4,24.5-24.4H420c8.8,0,16,7.2,16,16v16h113.5
		l-14.9-24H484c-8.8,0-16-7.2-16-16v-16c0-8.8,7.2-16,16-16h64c8.3,0,16,4.3,20.4,11.3l77.7,125.2c14.4-5.5,30.1-8.6,46.4-8.5
		C763.5,436.3,821.1,495.1,820,566z"/>
	<path class="st0" d="M692,484c-6.7,0-13.4,0.8-19.9,2.5l44.5,71.6c4.7,7.5,2.4,17.4-5.2,22l-13.6,8.4c-7.5,4.7-17.4,2.4-22-5.2
		l-44.4-71.6c-12.7,14.7-20.1,34.1-19.3,55.3c1.6,41.1,34.6,74.6,75.6,76.8c46.1,2.4,84.3-34.3,84.3-79.9
		C772,519.9,736.1,484,692,484z"/>
</g>
</svg>
