<?xml version="1.0" encoding="utf-8"?>
<!-- Generator: Adobe Illustrator 22.0.0, SVG Export Plug-In . SVG Version: 6.00 Build 0)  -->
<svg version="1.1" id="Layer_1" xmlns="http://www.w3.org/2000/svg" xmlns:xlink="http://www.w3.org/1999/xlink" x="0px" y="0px"
	 viewBox="0 0 700 700" style="enable-background:new 0 0 700 700;" xml:space="preserve">
<style type="text/css">
	.st0{fill:#FFFFFF;}
</style>
<g>
	<path class="st0" d="M338.5,281.1c-35.1-62.4-73-114.8-78.5-122.5c-59.3,28-103.6,82.6-117.3,148.3
		C152.1,307.1,239.4,307.4,338.5,281.1z"/>
	<path class="st0" d="M490.4,191.9c-52.1-46.2-122.9-63.7-190.1-47.5c5.9,7.8,44.3,60.2,79,124C454.7,240.2,486.6,197.3,490.4,191.9
		z"/>
	<path class="st0" d="M373.2,349.7c-5.3-12-11.1-24.1-17.2-35.9c-105.8,31.7-208.4,30.3-217.7,30.1c-0.1,2.2-0.1,4.3-0.1,6.5
		c0,54.4,20.6,104.1,54.5,141.6C227,433.2,296.6,371.2,373.2,349.7z"/>
	<path class="st0" d="M414.3,341.5c70.5-8.9,140.5,5.3,147.5,6.8c-0.5-50-18.3-95.9-47.8-132l0,0c-4.5,6-40,51.5-118.3,83.5
		C403.1,315.1,408.6,327.5,414.3,341.5z"/>
	<path class="st0" d="M427.2,374.9c27.7,76.1,39,138.1,41.2,151c47.5-32.1,81.4-83,90.8-142C551.9,381.7,493.6,364.3,427.2,374.9z"
		/>
	<path class="st0" d="M220,517.4c62.8,48.9,144.7,56.9,212.8,27.9c-3.1-18.6-15.4-83.4-45.2-160.6
		C302.2,413.8,242.1,472.2,220,517.4z"/>
	<path class="st0" d="M350,0C156.7,0,0,156.7,0,350s156.7,350,350,350s350-156.7,350-350S543.3,0,350,0z M350,598
		c-136.7,0-248-111.3-248-248s111.3-248,248-248s248,111.3,248,248S486.7,598,350,598z"/>
</g>
</svg>
