<?xml version="1.0" encoding="utf-8"?>
<!-- Generator: Adobe Illustrator 22.0.0, SVG Export Plug-In . SVG Version: 6.00 Build 0)  -->
<svg version="1.1" id="Layer_1" xmlns="http://www.w3.org/2000/svg" xmlns:xlink="http://www.w3.org/1999/xlink" x="0px" y="0px"
	 viewBox="0 0 1000 1000" style="enable-background:new 0 0 1000 1000;" xml:space="preserve">
<style type="text/css">
	.st0{fill:#FFFFFF;}
</style>
<g>
	<path class="st0" d="M640.4,341.9c-52.1-46.2-122.9-63.7-190.1-47.5c5.9,7.8,44.3,60.2,79,124C604.7,390.2,636.6,347.3,640.4,341.9
		z"/>
	<path class="st0" d="M370,667.4c62.8,48.9,144.7,56.9,212.8,27.9c-3.1-18.6-15.4-83.4-45.2-160.6
		C452.2,563.8,392.1,622.2,370,667.4z"/>
	<path class="st0" d="M488.5,431.1c-35.1-62.4-73-114.8-78.5-122.5c-59.3,28-103.6,82.6-117.3,148.3
		C302.1,457.1,389.4,457.4,488.5,431.1z"/>
	<path class="st0" d="M523.2,499.7c-5.3-12-11.1-24.1-17.2-35.9c-105.8,31.7-208.4,30.3-217.7,30.1c-0.1,2.2-0.1,4.3-0.1,6.5
		c0,54.4,20.6,104.1,54.5,141.6C377,583.2,446.6,521.2,523.2,499.7z"/>
	<path class="st0" d="M577.2,524.9c27.7,76.1,39,138.1,41.2,151c47.5-32.1,81.4-83,90.8-142C701.9,531.7,643.6,514.3,577.2,524.9z"
		/>
	<path class="st0" d="M500,0C223.9,0,0,223.9,0,500s223.9,500,500,500s500-223.9,500-500S776.1,0,500,0z M500,748
		c-136.7,0-248-111.3-248-248s111.3-248,248-248s248,111.3,248,248S636.7,748,500,748z"/>
	<path class="st0" d="M664,366.4c-4.5,6-40,51.5-118.3,83.5c7.4,15.2,12.9,27.6,18.6,41.6c70.5-8.9,140.5,5.3,147.5,6.8
		C711.3,448.3,693.5,402.4,664,366.4L664,366.4z"/>
</g>
</svg>
