<?xml version="1.0" encoding="utf-8"?>
<!-- Generator: Adobe Illustrator 22.0.0, SVG Export Plug-In . SVG Version: 6.00 Build 0)  -->
<svg version="1.1" id="Layer_1" xmlns="http://www.w3.org/2000/svg" xmlns:xlink="http://www.w3.org/1999/xlink" x="0px" y="0px"
	 viewBox="0 0 1000 1000" style="enable-background:new 0 0 1000 1000;" xml:space="preserve">
<style type="text/css">
	.st0{fill:#FFFFFF;}
</style>
<path class="st0" d="M500,0C223.9,0,0,223.9,0,500s223.9,500,500,500s500-223.9,500-500S776.1,0,500,0z M580.2,741.2
	c-12.7,2.3-17.3-5.6-17.3-12.1c0-8.2,0.3-49.9,0.3-83.6c0-23.5-7.8-38.5-17-46.4c55.9-6.3,114.8-14,114.8-110.5
	c0-27.4-9.8-41.2-25.8-58.9c2.6-6.5,11.1-33.2-2.6-67.9c-20.9-6.6-69,27-69,27c-20-5.6-41.5-8.5-62.8-8.5s-42.8,2.9-62.8,8.5
	c0,0-48.1-33.5-69-27c-13.7,34.6-5.2,61.4-2.6,67.9c-16,17.6-23.6,31.4-23.6,58.9c0,96.2,56.4,104.3,112.3,110.5
	c-7.2,6.6-13.7,17.7-16,33.7c-14.3,6.6-51,17.7-72.9-20.9c-13.7-23.8-38.6-25.8-38.6-25.8c-24.5-0.3-1.6,15.4-1.6,15.4
	c16.4,7.5,27.8,36.6,27.8,36.6c14.7,44.8,84.7,29.8,84.7,29.8c0,21,0.3,55.2,0.3,61.4c0,6.5-4.5,14.4-17.3,12.1
	C321.8,708,252,613.1,252,502.2c0-138.7,106.1-244,244.8-244S748,363.5,748,502.2C748,613.1,680.2,708,580.2,741.2z M432.3,648.9
	c-3,0.7-5.6-0.6-5.9-2.6c-0.3-2.3,1.7-4.2,4.6-4.9c2.9-0.3,5.6,1,5.9,2.9C437.2,646.3,435.2,648.2,432.3,648.9z M417.9,647.6
	c0,2-2.3,3.6-5.2,3.6c-3.3,0.3-5.6-1.3-5.6-3.6c0-2,2.3-3.6,5.2-3.6C415.3,643.7,417.9,645.3,417.9,647.6z M397.3,646
	c-0.6,2-3.6,3-6.2,2c-3-0.6-5-2.9-4.3-4.9s3.6-3,6.2-2.3C396,641.7,397.9,644,397.3,646z M378.6,637.8c-1.3,1.6-4.2,1.3-6.5-1
	c-2.3-1.9-2.9-4.9-1.3-6.2c1.3-1.6,4.3-1.3,6.5,1C379.3,633.5,379.9,636.5,378.6,637.8z M365,624.1c-1.3,1-4,0-5.6-2.3
	s-1.6-4.9,0-5.9c1.6-1.3,4.2-0.3,5.6,2C366.6,620.2,366.6,622.8,365,624.1z M355.1,609.3c-1.3,1.3-3.6,0.6-5.2-1
	c-1.7-1.9-2-4.2-0.7-5.2c1.3-1.3,3.6-0.6,5.2,1C356.1,606,356.4,608.3,355.1,609.3z M345,598.2c-0.7,1.4-2.7,1.7-4.3,0.7
	c-2-1-3-2.6-2.3-3.9c0.7-1,2.3-1.3,4.3-0.7C344.7,595.3,345.7,596.9,345,598.2z"/>
</svg>
