<?xml version="1.0" encoding="utf-8"?>
<!-- Generator: Adobe Illustrator 22.0.0, SVG Export Plug-In . SVG Version: 6.00 Build 0)  -->
<svg version="1.1" id="Layer_1" xmlns="http://www.w3.org/2000/svg" xmlns:xlink="http://www.w3.org/1999/xlink" x="0px" y="0px"
	 viewBox="0 0 700 700" style="enable-background:new 0 0 700 700;" xml:space="preserve">
<style type="text/css">
	.st0{fill:#FFFFFF;}
</style>
<path class="st0" d="M350,0C156.7,0,0,156.7,0,350s156.7,350,350,350s350-156.7,350-350S543.3,0,350,0z M430.2,591.2
	c-12.7,2.3-17.3-5.6-17.3-12.1c0-8.2,0.3-49.9,0.3-83.6c0-23.5-7.8-38.5-17-46.4c55.9-6.3,114.8-14,114.8-110.5
	c0-27.4-9.8-41.2-25.8-58.9c2.6-6.5,11.1-33.2-2.6-67.9c-20.9-6.6-69,27-69,27c-20-5.6-41.5-8.5-62.8-8.5s-42.8,2.9-62.8,8.5
	c0,0-48.1-33.5-69-27c-13.7,34.6-5.2,61.4-2.6,67.9c-16,17.6-23.6,31.4-23.6,58.9c0,96.2,56.4,104.3,112.3,110.5
	c-7.2,6.6-13.7,17.7-16,33.7c-14.3,6.6-51,17.7-72.9-20.9c-13.7-23.8-38.6-25.8-38.6-25.8c-24.5-0.3-1.6,15.4-1.6,15.4
	c16.4,7.5,27.8,36.6,27.8,36.6c14.7,44.8,84.7,29.8,84.7,29.8c0,21,0.3,55.2,0.3,61.4c0,6.5-4.5,14.4-17.3,12.1
	C171.8,558,102,463.1,102,352.2c0-138.7,106.1-244,244.8-244S598,213.5,598,352.2C598,463.1,530.2,558,430.2,591.2z M282.3,498.9
	c-3,0.7-5.6-0.6-5.9-2.6c-0.3-2.3,1.7-4.2,4.6-4.9c2.9-0.3,5.6,1,5.9,2.9C287.2,496.3,285.2,498.2,282.3,498.9z M267.9,497.6
	c0,2-2.3,3.6-5.2,3.6c-3.3,0.3-5.6-1.3-5.6-3.6c0-2,2.3-3.6,5.2-3.6C265.3,493.7,267.9,495.3,267.9,497.6z M247.3,496
	c-0.6,2-3.6,3-6.2,2c-3-0.6-5-2.9-4.3-4.9s3.6-3,6.2-2.3C246,491.7,247.9,494,247.3,496z M228.6,487.8c-1.3,1.6-4.2,1.3-6.5-1
	c-2.3-1.9-2.9-4.9-1.3-6.2c1.3-1.6,4.3-1.3,6.5,1C229.3,483.5,229.9,486.5,228.6,487.8z M215,474.1c-1.3,1-4,0-5.6-2.3
	s-1.6-4.9,0-5.9c1.6-1.3,4.2-0.3,5.6,2C216.6,470.2,216.6,472.8,215,474.1z M205.1,459.3c-1.3,1.3-3.6,0.6-5.2-1
	c-1.7-1.9-2-4.2-0.7-5.2c1.3-1.3,3.6-0.6,5.2,1C206.1,456,206.4,458.3,205.1,459.3z M195,448.2c-0.7,1.4-2.7,1.7-4.3,0.7
	c-2-1-3-2.6-2.3-3.9c0.7-1,2.3-1.3,4.3-0.7C194.7,445.3,195.7,446.9,195,448.2z"/>
</svg>
