<?xml version="1.0" encoding="utf-8"?>
<!-- Generator: Adobe Illustrator 22.0.0, SVG Export Plug-In . SVG Version: 6.00 Build 0)  -->
<svg version="1.1" id="Layer_1" xmlns="http://www.w3.org/2000/svg" xmlns:xlink="http://www.w3.org/1999/xlink" x="0px" y="0px"
	 viewBox="0 0 1000 1000" style="enable-background:new 0 0 1000 1000;" xml:space="preserve">
<style type="text/css">
	.st0{fill:#FFFFFF;}
</style>
<g>
	<path class="st0" d="M602.2,490.1c-18.9,0-37,3.4-56,6c-14.9,2.3-29.8,3.2-45.1,3.2c-15.2,0-30.1-0.9-45.1-3.2c-18.7-2.6-37-6-56-6
		c-46.8,0-73.5,38.7-73.5,82.6c0,87.8,80.4,101.3,150.4,101.3h48.2c70.3,0,150.6-13.4,150.6-101.3
		C675.7,528.8,649,490.1,602.2,490.1z M409.4,627.8c-25.8,0-36.7-34.2-36.7-55.1c0-20.9,10.9-55.1,36.7-55.1s36.7,34.2,36.7,55.1
		S435.2,627.8,409.4,627.8z M593.1,627.8c-25.8,0-36.7-34.2-36.7-55.1c0-20.9,10.9-55.1,36.7-55.1s36.7,34.2,36.7,55.1
		S618.9,627.8,593.1,627.8z"/>
	<path class="st0" d="M500,0C223.9,0,0,223.9,0,500s223.9,500,500,500s500-223.9,500-500S776.1,0,500,0z M722.5,617.2
		C684.6,693.8,580.4,692,505.8,692c-75.8,0-186.2,2.7-225.6-74.8c-14.6-29-20.2-63.1-20.2-95c0-41.9,13.9-81.5,41.5-113.6
		c-5.2-15.8-7.7-32.4-7.7-48.8c0-21.5,4.9-32.3,14.6-51.8c45.3,0,74.3,9,108.8,36c29-6.9,58.8-10,88.7-10c27,0,54.2,2.9,80.4,9.2
		c34-26.7,63-35.2,107.8-35.2c9.8,19.5,14.6,30.3,14.6,51.8c0,16.4-2.6,32.7-7.7,48.2c27.5,32.4,39,72.3,39,114.2
		C740,554.1,736.8,587.9,722.5,617.2z"/>
</g>
</svg>
