<?xml version="1.0" encoding="utf-8"?>
<!-- Generator: Adobe Illustrator 22.0.0, SVG Export Plug-In . SVG Version: 6.00 Build 0)  -->
<svg version="1.1" id="Layer_1" xmlns="http://www.w3.org/2000/svg" xmlns:xlink="http://www.w3.org/1999/xlink" x="0px" y="0px"
	 viewBox="0 0 1000 1000" style="enable-background:new 0 0 1000 1000;" xml:space="preserve">
<style type="text/css">
	.st0{fill:#FFFFFF;}
</style>
<g>
	<circle class="st0" cx="500" cy="500" r="74.7"/>
	<path class="st0" d="M674.8,367.9c-7.9-19.7-23-34.8-42.6-42.6c-29.4-11.6-99.5-9-132.1-9s-102.6-2.7-132.1,9
		c-19.7,7.9-34.8,23-42.6,42.6c-11.6,29.4-9,99.5-9,132.1s-2.7,102.6,9,132.1c7.9,19.7,23,34.8,42.6,42.6c29.4,11.6,99.5,9,132.1,9
		s102.6,2.7,132.1-9c19.7-7.9,34.8-23,42.6-42.6c11.7-29.4,9-99.5,9-132.1S686.5,397.4,674.8,367.9z M500,614.9
		c-63.6,0-114.9-51.3-114.9-114.9S436.5,385.1,500,385.1S615,436.4,615,500S563.7,614.9,500,614.9z M619.7,407.2
		c-14.9,0-26.8-12-26.8-26.8s12-26.8,26.8-26.8s26.8,12,26.8,26.8C646.5,395.3,634.5,407.2,619.7,407.2z"/>
	<path class="st0" d="M500,0C223.9,0,0,223.9,0,500s223.9,500,500,500s500-223.9,500-500S776.1,0,500,0z M722.5,592.4
		c-1.8,35.9-10,67.7-36.2,93.9c-26.2,26.3-58,34.5-93.9,36.2c-37,2.1-147.9,2.1-184.9,0c-35.9-1.8-67.6-10-93.9-36.2
		s-34.5-58-36.2-93.9c-2.1-37-2.1-147.9,0-184.9c1.8-35.9,9.9-67.7,36.2-93.9c26.3-26.2,58.1-34.4,93.9-36.1
		c37-2.1,147.9-2.1,184.9,0c35.9,1.8,67.7,10,93.9,36.2c26.3,26.2,34.5,58,36.2,93.9C724.7,444.6,724.7,555.4,722.5,592.4z"/>
</g>
</svg>
