<?xml version="1.0" encoding="utf-8"?>
<!-- Generator: Adobe Illustrator 22.0.0, SVG Export Plug-In . SVG Version: 6.00 Build 0)  -->
<svg version="1.1" id="Layer_1" xmlns="http://www.w3.org/2000/svg" xmlns:xlink="http://www.w3.org/1999/xlink" x="0px" y="0px"
	 viewBox="0 0 700 700" style="enable-background:new 0 0 700 700;" xml:space="preserve">
<style type="text/css">
	.st0{fill:#FFFFFF;}
</style>
<g>
	<path class="st0" d="M524.8,217.9c-7.9-19.7-23-34.8-42.6-42.6c-29.4-11.6-99.5-9-132.1-9s-102.6-2.7-132.1,9
		c-19.7,7.9-34.8,23-42.6,42.6c-11.6,29.4-9,99.5-9,132.1s-2.7,102.6,9,132.1c7.9,19.7,23,34.8,42.6,42.6c29.4,11.6,99.5,9,132.1,9
		s102.6,2.7,132.1-9c19.7-7.9,34.8-23,42.6-42.6c11.7-29.4,9-99.5,9-132.1S536.5,247.4,524.8,217.9z M350,464.9
		c-63.6,0-114.9-51.3-114.9-114.9S286.5,235.1,350,235.1S465,286.4,465,350S413.7,464.9,350,464.9z M469.7,257.2
		c-14.9,0-26.8-12-26.8-26.8s12-26.8,26.8-26.8s26.8,12,26.8,26.8C496.5,245.3,484.5,257.2,469.7,257.2z"/>
	<circle class="st0" cx="350" cy="350" r="74.7"/>
	<path class="st0" d="M350,0C156.7,0,0,156.7,0,350s156.7,350,350,350s350-156.7,350-350S543.3,0,350,0z M572.5,442.4
		c-1.8,35.9-10,67.7-36.2,93.9c-26.2,26.3-58,34.5-93.9,36.2c-37,2.1-147.9,2.1-184.9,0c-35.9-1.8-67.6-10-93.9-36.2
		s-34.5-58-36.2-93.9c-2.1-37-2.1-147.9,0-184.9c1.8-35.9,9.9-67.7,36.2-93.9s58.1-34.4,93.9-36.1c37-2.1,147.9-2.1,184.9,0
		c35.9,1.8,67.7,10,93.9,36.2c26.3,26.2,34.5,58,36.2,93.9C574.7,294.6,574.7,405.4,572.5,442.4z"/>
</g>
</svg>
