<?xml version="1.0" encoding="utf-8"?>
<!-- Generator: Adobe Illustrator 22.0.0, SVG Export Plug-In . SVG Version: 6.00 Build 0)  -->
<svg version="1.1" id="Layer_1" xmlns="http://www.w3.org/2000/svg" xmlns:xlink="http://www.w3.org/1999/xlink" x="0px" y="0px"
	 viewBox="0 0 700 700" style="enable-background:new 0 0 700 700;" xml:space="preserve">
<style type="text/css">
	.st0{display:none;}
	.st1{fill:#FFFFFF;}
</style>
<path class="st0" d="M553.6,245.7c0.3,4.5,0.3,9.1,0.3,13.6c0,138.7-105.6,298.6-298.6,298.6c-59.5,0-114.7-17.2-161.1-47.1
	c8.4,1,16.6,1.3,25.3,1.3c49.1,0,94.2-16.6,130.3-44.8c-46.1-1-84.8-31.2-98.1-72.8c6.5,1,13,1.6,19.8,1.6c9.4,0,18.8-1.3,27.6-3.6
	c-48.1-9.7-84.1-52-84.1-103v-1.3c14,7.8,30.2,12.7,47.4,13.3c-28.3-18.8-46.8-51-46.8-87.4c0-19.5,5.2-37.4,14.3-53
	c51.7,63.7,129.3,105.3,216.4,109.8c-1.6-7.8-2.6-15.9-2.6-24c0-57.8,46.8-104.9,104.9-104.9c30.2,0,57.5,12.7,76.7,33.1
	c23.7-4.5,46.5-13.3,66.6-25.3c-7.8,24.4-24.4,44.8-46.1,57.8c21.1-2.3,41.6-8.1,60.4-16.2C591.9,212.3,574,230.8,553.6,245.7
	L553.6,245.7z"/>
<g>
	<path class="st1" d="M524.8,217.9c-7.9-19.7-23-34.8-42.6-42.6c-29.4-11.6-99.5-9-132.1-9c-32.6,0-102.6-2.7-132.1,9
		c-19.7,7.9-34.8,23-42.6,42.6c-11.6,29.4-9,99.5-9,132.1c0,32.6-2.7,102.6,9,132.1c7.9,19.7,23,34.8,42.6,42.6
		c29.4,11.6,99.5,9,132.1,9c32.6,0,102.6,2.7,132.1-9c19.7-7.9,34.8-23,42.6-42.6c11.7-29.4,9-99.5,9-132.1
		C533.8,317.4,536.5,247.4,524.8,217.9z M350,464.9c-63.6,0-114.9-51.3-114.9-114.9S286.5,235.1,350,235.1S465,286.4,465,350
		S413.7,464.9,350,464.9z M469.7,257.2c-14.9,0-26.8-12-26.8-26.8c0-14.8,12-26.8,26.8-26.8s26.8,12,26.8,26.8
		C496.5,245.3,484.5,257.2,469.7,257.2z"/>
	<circle class="st1" cx="350" cy="350" r="74.7"/>
	<path class="st1" d="M350,0C156.7,0,0,156.7,0,350s156.7,350,350,350s350-156.7,350-350S543.3,0,350,0z M572.5,442.4
		c-1.8,35.9-10,67.7-36.2,93.9c-26.2,26.3-58,34.5-93.9,36.2c-37,2.1-147.9,2.1-184.9,0c-35.9-1.8-67.6-10-93.9-36.2
		c-26.3-26.2-34.5-58-36.2-93.9c-2.1-37-2.1-147.9,0-184.9c1.8-35.9,9.9-67.7,36.2-93.9c26.3-26.2,58.1-34.4,93.9-36.1
		c37-2.1,147.9-2.1,184.9,0c35.9,1.8,67.7,10,93.9,36.2c26.3,26.2,34.5,58,36.2,93.9C574.7,294.6,574.7,405.4,572.5,442.4z"/>
</g>
</svg>
