<?xml version="1.0" encoding="utf-8"?>
<!-- Generator: Adobe Illustrator 22.0.0, SVG Export Plug-In . SVG Version: 6.00 Build 0)  -->
<svg version="1.1" id="Layer_1" xmlns="http://www.w3.org/2000/svg" xmlns:xlink="http://www.w3.org/1999/xlink" x="0px" y="0px"
	 viewBox="0 0 700 700" style="enable-background:new 0 0 700 700;" xml:space="preserve">
<style type="text/css">
	.st0{display:none;}
	.st1{fill:#FFFFFF;}
</style>
<path class="st0" d="M553.6,245.7c0.3,4.5,0.3,9.1,0.3,13.6c0,138.7-105.6,298.6-298.6,298.6c-59.5,0-114.7-17.2-161.1-47.1
	c8.4,1,16.6,1.3,25.3,1.3c49.1,0,94.2-16.6,130.3-44.8c-46.1-1-84.8-31.2-98.1-72.8c6.5,1,13,1.6,19.8,1.6c9.4,0,18.8-1.3,27.6-3.6
	c-48.1-9.7-84.1-52-84.1-103v-1.3c14,7.8,30.2,12.7,47.4,13.3c-28.3-18.8-46.8-51-46.8-87.4c0-19.5,5.2-37.4,14.3-53
	c51.7,63.7,129.3,105.3,216.4,109.8c-1.6-7.8-2.6-15.9-2.6-24c0-57.8,46.8-104.9,104.9-104.9c30.2,0,57.5,12.7,76.7,33.1
	c23.7-4.5,46.5-13.3,66.6-25.3c-7.8,24.4-24.4,44.8-46.1,57.8c21.1-2.3,41.6-8.1,60.4-16.2C591.9,212.3,574,230.8,553.6,245.7
	L553.6,245.7z"/>
<path class="st0" d="M350,235.1c-63.6,0-114.9,51.3-114.9,114.9S286.4,464.9,350,464.9S464.9,413.6,464.9,350S413.6,235.1,350,235.1
	z M350,424.7c-41.1,0-74.7-33.5-74.7-74.7s33.5-74.7,74.7-74.7s74.7,33.5,74.7,74.7S391.1,424.7,350,424.7L350,424.7z M496.4,230.4
	c0,14.9-12,26.8-26.8,26.8c-14.9,0-26.8-12-26.8-26.8s12-26.8,26.8-26.8S496.4,215.6,496.4,230.4z M572.5,257.6
	c-1.7-35.9-9.9-67.7-36.2-93.9c-26.2-26.2-58-34.4-93.9-36.2c-37-2.1-147.9-2.1-184.9,0c-35.8,1.7-67.6,9.9-93.9,36.1
	s-34.4,58-36.2,93.9c-2.1,37-2.1,147.9,0,184.9c1.7,35.9,9.9,67.7,36.2,93.9c26.3,26.2,58,34.4,93.9,36.2c37,2.1,147.9,2.1,184.9,0
	c35.9-1.7,67.7-9.9,93.9-36.2c26.2-26.2,34.4-58,36.2-93.9C574.7,405.4,574.7,294.6,572.5,257.6L572.5,257.6z M524.8,482.1
	c-7.8,19.6-22.9,34.7-42.6,42.6c-29.5,11.7-99.5,9-132.1,9s-102.7,2.6-132.1-9c-19.6-7.8-34.7-22.9-42.6-42.6
	c-11.7-29.5-9-99.5-9-132.1s-2.6-102.7,9-132.1c7.8-19.6,22.9-34.7,42.6-42.6c29.5-11.7,99.5-9,132.1-9s102.7-2.6,132.1,9
	c19.6,7.8,34.7,22.9,42.6,42.6c11.7,29.5,9,99.5,9,132.1S536.5,452.7,524.8,482.1z"/>
<path class="st0" d="M466.6,386l-43.9,88.2L378.1,386h-67.6l112.2,220l111.5-220H466.6z M316.4,94L165,386h89.2l62.2-116.1
	L378.1,386h88.5L316.4,94z"/>
<path class="st0" d="M350,102c-137.1,0-248,110.9-248,248c0,137.1,110.9,248,248,248c48.2,0,95.3-14.1,135.4-40.2
	c12-7.8,14.6-24.3,5.6-35.4L480.8,510c-7.7-9.4-21.2-11.7-31.4-5.1C419.9,523.8,385.3,534,350,534c-101.5,0-184-82.5-184-184
	s82.5-184,184-184c100.1,0,184,57.6,184,160c0,38.8-21.1,79.7-58.2,83.7c-17.3-0.5-16.9-12.9-13.5-30l23.4-121.1
	c2.9-14.8-8.5-28.6-23.6-28.6h-45c-6.9,0-12.7,5.2-13.4,12l0,0.1c-14.7-17.9-40.4-21.8-60-21.8c-74.6,0-137.8,62.2-137.8,151.5
	c0,65.3,36.8,105.9,96,105.9c27,0,57.4-15.6,75-38.3c9.5,34.1,40.6,34.1,70.7,34.1C556.6,473.4,598,401.8,598,326
	C598,189.7,488,102,350,102z M328.3,406.4c-22.2,0-36.1-15.6-36.1-40.8c0-45,30.8-72.7,58.6-72.7c22.3,0,35.6,15.2,35.6,40.8
	C386.5,378.8,352.6,406.4,328.3,406.4L328.3,406.4z"/>
<path class="st1" d="M350,0C156.7,0,0,156.7,0,350s156.7,350,350,350s350-156.7,350-350S543.3,0,350,0z M226.2,574h-92.9V274.9h92.9
	V574z M179.8,234.1c-29.7,0-53.8-24.6-53.8-54.3S150,126,179.8,126s53.8,24.1,53.8,53.8S209.5,234.1,179.8,234.1z M574.1,574H574
	h-92.7V428.4c0-34.7-0.7-79.2-48.3-79.2c-48.3,0-55.7,37.7-55.7,76.7V574h-92.8V274.9h89.1v40.8h1.3c12.4-23.5,42.7-48.3,87.9-48.3
	c94,0,111.3,61.9,111.3,142.3V574z"/>
</svg>
