<?xml version="1.0" encoding="utf-8"?>
<!-- Generator: Adobe Illustrator 22.0.0, SVG Export Plug-In . SVG Version: 6.00 Build 0)  -->
<svg version="1.1" id="Layer_1" xmlns="http://www.w3.org/2000/svg" xmlns:xlink="http://www.w3.org/1999/xlink" x="0px" y="0px"
	 viewBox="0 0 700 700" style="enable-background:new 0 0 700 700;" xml:space="preserve">
<style type="text/css">
	.st0{fill:#FFFFFF;}
</style>
<path class="st0" d="M350,0C156.7,0,0,156.7,0,350s156.7,350,350,350s350-156.7,350-350S543.3,0,350,0z M226.2,574h-92.9V274.9h92.9
	L226.2,574L226.2,574z M179.8,234.1c-29.7,0-53.8-24.6-53.8-54.3s24-53.8,53.8-53.8s53.8,24.1,53.8,53.8S209.5,234.1,179.8,234.1z
	 M574.1,574L574.1,574h-92.8V428.4c0-34.7-0.7-79.2-48.3-79.2c-48.3,0-55.7,37.7-55.7,76.7V574h-92.8V274.9h89.1v40.8h1.3
	c12.4-23.5,42.7-48.3,87.9-48.3c94,0,111.3,61.9,111.3,142.3V574z"/>
</svg>
