<?xml version="1.0" encoding="utf-8"?>
<svg version="1.1" id="Layer_1" x="0px" y="0px" viewBox="0 0 1000 1000" style="enable-background:new 0 0 1000 1000;" xmlns="http://www.w3.org/2000/svg">
  <style type="text/css">
	.st0{fill:#FFFFFF;}
</style>
  <path class="st0" d="M 1000 500 C 1000 776.1 776.1 1000 500 1000 C 223.9 1000 0 776.1 0 500 C 0 223.9 223.9 0 500 0 C 776.1 0 1000 223.9 1000 500 Z M 507.247 232.742 C 438.596 233.024 370.435 241.737 334.965 258.089 C 334.965 258.089 258.656 292.828 258.656 411.153 C 258.656 552 258.554 728.881 385.083 763.085 C 433.54 776.107 475.208 778.912 508.711 776.981 C 569.508 773.548 599.581 754.92 599.581 754.92 L 597.541 709.995 C 597.541 709.995 558.13 723.882 509.334 722.288 C 460.992 720.583 410.061 716.957 402.13 656.59 C 401.401 650.977 401.041 645.294 401.063 639.636 C 503.499 665.068 590.85 650.712 614.896 647.802 C 682.036 639.642 740.482 597.542 747.936 559.064 C 759.618 498.426 758.636 411.153 758.636 411.153 C 758.636 292.828 682.46 258.089 682.46 258.089 C 645.061 240.626 575.897 232.462 507.247 232.742 Z M 433.778 322.991 C 457.301 323.623 480.545 334.145 494.862 356.374 L 508.711 379.902 L 522.52 356.374 C 551.268 311.667 615.706 314.455 646.369 349.049 C 674.645 381.957 668.344 403.202 668.344 550.23 L 668.344 550.274 L 612.72 550.274 L 612.72 422.339 C 612.72 362.45 536.368 360.136 536.368 430.639 L 536.368 504.774 L 481.101 504.774 L 481.101 430.639 C 481.101 360.136 404.794 362.403 404.794 422.292 L 404.794 550.23 L 349.037 550.23 C 349.037 403.086 342.849 381.71 371.01 349.049 C 386.454 331.638 410.259 322.357 433.778 322.991 Z" style=""/>
</svg>
