<?xml version="1.0" encoding="utf-8"?>
<!-- Generator: Adobe Illustrator 22.0.0, SVG Export Plug-In . SVG Version: 6.00 Build 0)  -->
<svg version="1.1" id="Layer_1" xmlns="http://www.w3.org/2000/svg" xmlns:xlink="http://www.w3.org/1999/xlink" x="0px" y="0px"
	 viewBox="0 0 1000 1000" style="enable-background:new 0 0 1000 1000;" xml:space="preserve">
<style type="text/css">
	.st0{fill:#FFFFFF;}
</style>
<path class="st0" d="M500,0C223.9,0,0,223.9,0,500s223.9,500,500,500s500-223.9,500-500S776.1,0,500,0z M741.9,316.2l-38.6,37
	c-3.3,2.5-5,6.7-4.3,10.8v272c-0.7,4.1,1,8.3,4.3,10.8l37.7,37v8.1H551.2v-8.1l39.1-37.9c3.8-3.8,3.8-5,3.8-10.8V415.3L485.5,691.2
	h-14.7L344.3,415.3v184.9c-1.1,7.8,1.5,15.6,7,21.2l50.8,61.6v8.1h-144v-8l50.8-61.7c5.4-5.6,7.9-13.5,6.5-21.2V386.4
	c0.6-5.9-1.7-11.8-6.1-15.8l-45.1-54.4v-8.1h140.2l108.4,237.7l95.3-237.7h133.7v8.1H741.9z"/>
</svg>
