<?xml version="1.0" encoding="utf-8"?>
<!-- Generator: Adobe Illustrator 22.0.0, SVG Export Plug-In . SVG Version: 6.00 Build 0)  -->
<svg version="1.1" id="Layer_1" xmlns="http://www.w3.org/2000/svg" xmlns:xlink="http://www.w3.org/1999/xlink" x="0px" y="0px"
	 viewBox="0 0 700 700" style="enable-background:new 0 0 700 700;" xml:space="preserve">
<style type="text/css">
	.st0{display:none;}
	.st1{fill:#FFFFFF;}
</style>
<path id="twitter" class="st0" d="M553.6,245.7c0.3,4.5,0.3,9.1,0.3,13.6c0,138.7-105.6,298.6-298.6,298.6
	c-59.5,0-114.7-17.2-161.1-47.1c8.4,1,16.6,1.3,25.3,1.3c49.1,0,94.2-16.6,130.3-44.8c-46.1-1-84.8-31.2-98.1-72.8
	c6.5,1,13,1.6,19.8,1.6c9.4,0,18.8-1.3,27.6-3.6c-48.1-9.7-84.1-52-84.1-103v-1.3c14,7.8,30.2,12.7,47.4,13.3
	c-28.3-18.8-46.8-51-46.8-87.4c0-19.5,5.2-37.4,14.3-53c51.7,63.7,129.3,105.3,216.4,109.8c-1.6-7.8-2.6-15.9-2.6-24
	c0-57.8,46.8-104.9,104.9-104.9c30.2,0,57.5,12.7,76.7,33.1c23.7-4.5,46.5-13.3,66.6-25.3c-7.8,24.4-24.4,44.8-46.1,57.8
	c21.1-2.3,41.6-8.1,60.4-16.2C591.9,212.3,574,230.8,553.6,245.7L553.6,245.7z"/>
<path id="instagram" class="st0" d="M350,235.1c-63.6,0-114.9,51.3-114.9,114.9S286.4,464.9,350,464.9S464.9,413.6,464.9,350
	S413.6,235.1,350,235.1z M350,424.7c-41.1,0-74.7-33.5-74.7-74.7s33.5-74.7,74.7-74.7s74.7,33.5,74.7,74.7S391.1,424.7,350,424.7
	L350,424.7z M496.4,230.4c0,14.9-12,26.8-26.8,26.8c-14.9,0-26.8-12-26.8-26.8s12-26.8,26.8-26.8S496.4,215.6,496.4,230.4z
	 M572.5,257.6c-1.7-35.9-9.9-67.7-36.2-93.9c-26.2-26.2-58-34.4-93.9-36.2c-37-2.1-147.9-2.1-184.9,0c-35.8,1.7-67.6,9.9-93.9,36.1
	s-34.4,58-36.2,93.9c-2.1,37-2.1,147.9,0,184.9c1.7,35.9,9.9,67.7,36.2,93.9c26.3,26.2,58,34.4,93.9,36.2c37,2.1,147.9,2.1,184.9,0
	c35.9-1.7,67.7-9.9,93.9-36.2c26.2-26.2,34.4-58,36.2-93.9C574.7,405.4,574.7,294.6,572.5,257.6L572.5,257.6z M524.8,482.1
	c-7.8,19.6-22.9,34.7-42.6,42.6c-29.5,11.7-99.5,9-132.1,9s-102.7,2.6-132.1-9c-19.6-7.8-34.7-22.9-42.6-42.6
	c-11.7-29.5-9-99.5-9-132.1s-2.6-102.7,9-132.1c7.8-19.6,22.9-34.7,42.6-42.6c29.5-11.7,99.5-9,132.1-9s102.7-2.6,132.1,9
	c19.6,7.8,34.7,22.9,42.6,42.6c11.7,29.5,9,99.5,9,132.1S536.5,452.7,524.8,482.1z"/>
<path id="strava" class="st0" d="M466.6,386l-43.9,88.2L378.1,386h-67.6l112.2,220l111.5-220H466.6z M316.4,94L165,386h89.2
	l62.2-116.1L378.1,386h88.5L316.4,94z"/>
<path id="at-email" class="st0" d="M350,102c-137.1,0-248,110.9-248,248c0,137.1,110.9,248,248,248c48.2,0,95.3-14.1,135.4-40.2
	c12-7.8,14.6-24.3,5.6-35.4L480.8,510c-7.7-9.4-21.2-11.7-31.4-5.1C419.9,523.8,385.3,534,350,534c-101.5,0-184-82.5-184-184
	s82.5-184,184-184c100.1,0,184,57.6,184,160c0,38.8-21.1,79.7-58.2,83.7c-17.3-0.5-16.9-12.9-13.5-30l23.4-121.1
	c2.9-14.8-8.5-28.6-23.6-28.6h-45c-6.9,0-12.7,5.2-13.4,12l0,0.1c-14.7-17.9-40.4-21.8-60-21.8c-74.6,0-137.8,62.2-137.8,151.5
	c0,65.3,36.8,105.9,96,105.9c27,0,57.4-15.6,75-38.3c9.5,34.1,40.6,34.1,70.7,34.1C556.6,473.4,598,401.8,598,326
	C598,189.7,488,102,350,102z M328.3,406.4c-22.2,0-36.1-15.6-36.1-40.8c0-45,30.8-72.7,58.6-72.7c22.3,0,35.6,15.2,35.6,40.8
	C386.5,378.8,352.6,406.4,328.3,406.4L328.3,406.4z"/>
<path id="linkedin" class="st0" d="M226.2,574h-92.9V274.9h92.9V574z M179.7,234.1c-29.7,0-53.8-24.6-53.8-54.3S150,126,179.7,126
	s53.8,24.1,53.8,53.8S209.4,234.1,179.7,234.1z M573.9,574h-92.7V428.4c0-34.7-0.7-79.2-48.3-79.2c-48.3,0-55.7,37.7-55.7,76.7V574
	h-92.8V274.9h89.1v40.8h1.3c12.4-23.5,42.7-48.3,87.9-48.3c94,0,111.3,61.9,111.3,142.3V574H573.9z"/>
<path id="facebook" class="st0" d="M294.7,606V377H218v-91h76.7v-71.7c0-77.9,47.6-120.3,117.1-120.3c33.3,0,61.9,2.5,70.2,3.6V179
	h-48.2c-37.8,0-45.1,18-45.1,44.3V286H474l-11.7,91h-73.6v229"/>
<path id="bicycle" class="st0" d="M542.5,286c-16.4-0.1-32,3-46.4,8.5l-77.7-125.2C414,162.3,406.3,158,398,158h-64
	c-8.8,0-16,7.2-16,16v16c0,8.8,7.2,16,16,16h50.6l14.9,24H286v-16c0-8.8-7.2-16-16-16h-87.5c-13.4,0-24.8,11-24.5,24.4
	c0.2,13,10.9,23.6,24,23.6h48.7l-29.4,47.5c-13.4-4.8-27.9-7.5-43-7.5C88.1,285.8,30.4,343,30,413.2C29.6,484.3,87.1,542,158,542
	c59.6,0,109.8-40.8,124-96h52c8.3,0,16-4.3,20.4-11.4l86-138.9l14.9,24.1c-25.5,23.4-41.4,57.1-41.3,94.4
	c0.1,68.8,57.9,127.1,126.7,127.7c70.6,0.7,128.2-55.8,129.3-126C671.1,345.1,613.5,286.3,542.5,286L542.5,286z M216.8,359.8
	c9.7,10.5,16.7,23.7,19.6,38.2h-43.3L216.8,359.8z M158,494c-44.1,0-80-35.9-80-80s35.9-80,80-80c5.9,0,11.6,0.7,17.1,1.9
	l-45.5,73.5c-9.9,16,1.6,36.6,20.4,36.6h81.3C218.9,474.2,190.7,494,158,494z M320.6,398H285c-4-31.8-19.6-59.9-42.4-80l24.7-40
	h127.5L320.6,398L320.6,398z M537.7,493.9c-41-2.2-74-35.7-75.6-76.8c-0.8-21.1,6.6-40.5,19.3-55.3l44.4,71.6
	c4.7,7.5,14.5,9.8,22,5.2l13.6-8.4c7.5-4.7,9.8-14.5,5.2-22l-44.5-71.6c6.5-1.7,13.2-2.5,19.9-2.5c44.1,0,80,35.9,80,80
	C622,459.5,583.8,496.3,537.7,493.9z"/>
<path id="github-alt" class="st0" d="M296.1,422.7c0,20.9-10.9,55.1-36.7,55.1c-25.8,0-36.7-34.2-36.7-55.1s10.9-55.1,36.7-55.1
	S296.1,401.8,296.1,422.7z M590,372.2c0,31.9-3.2,65.7-17.5,95C534.6,543.8,430.4,542,355.8,542c-75.8,0-186.2,2.7-225.6-74.8
	c-14.6-29-20.2-63.1-20.2-95c0-41.9,13.9-81.5,41.5-113.6c-5.2-15.8-7.7-32.4-7.7-48.8c0-21.5,4.9-32.3,14.6-51.8
	c45.3,0,74.3,9,108.8,36c29-6.9,58.8-10,88.7-10c27,0,54.2,2.9,80.4,9.2c34-26.7,63-35.2,107.8-35.2c9.8,19.5,14.6,30.3,14.6,51.8
	c0,16.4-2.6,32.7-7.7,48.2C578.5,290.4,590,330.3,590,372.2L590,372.2z M525.7,422.7c0-43.9-26.7-82.6-73.5-82.6
	c-18.9,0-37,3.4-56,6c-14.9,2.3-29.8,3.2-45.1,3.2c-15.2,0-30.1-0.9-45.1-3.2c-18.7-2.6-37-6-56-6c-46.8,0-73.5,38.7-73.5,82.6
	c0,87.8,80.4,101.3,150.4,101.3h48.2C445.4,524,525.7,510.6,525.7,422.7z M443.1,367.6c-25.8,0-36.7,34.2-36.7,55.1
	s10.9,55.1,36.7,55.1s36.7-34.2,36.7-55.1S468.9,367.6,443.1,367.6z"/>
<path id="github" class="st0" d="M267.9,497.6c0,2-2.3,3.6-5.2,3.6c-3.3,0.3-5.6-1.3-5.6-3.6c0-2,2.3-3.6,5.2-3.6
	C265.3,493.7,267.9,495.3,267.9,497.6z M236.8,493.1c-0.7,2,1.3,4.3,4.3,4.9c2.6,1,5.6,0,6.2-2s-1.3-4.3-4.3-5.2
	C240.4,490.1,237.5,491.1,236.8,493.1L236.8,493.1z M281,491.4c-2.9,0.7-4.9,2.6-4.6,4.9c0.3,2,2.9,3.3,5.9,2.6
	c2.9-0.7,4.9-2.6,4.6-4.6C286.6,492.4,283.9,491.1,281,491.4z M346.8,108.2c-138.7,0-244.8,105.3-244.8,244
	c0,110.9,69.8,205.8,169.5,239.2c12.8,2.3,17.3-5.6,17.3-12.1c0-6.2-0.3-40.4-0.3-61.4c0,0-70,15-84.7-29.8c0,0-11.4-29.1-27.8-36.6
	c0,0-22.9-15.7,1.6-15.4c0,0,24.9,2,38.6,25.8c21.9,38.6,58.6,27.5,72.9,20.9c2.3-16,8.8-27.1,16-33.7
	c-55.9-6.2-112.3-14.3-112.3-110.5c0-27.5,7.6-41.3,23.6-58.9c-2.6-6.5-11.1-33.3,2.6-67.9c20.9-6.5,69,27,69,27
	c20-5.6,41.5-8.5,62.8-8.5c21.3,0,42.8,2.9,62.8,8.5c0,0,48.1-33.6,69-27c13.7,34.7,5.2,61.4,2.6,67.9c16,17.7,25.8,31.5,25.8,58.9
	c0,96.5-58.9,104.2-114.8,110.5c9.2,7.9,17,22.9,17,46.4c0,33.7-0.3,75.4-0.3,83.6c0,6.5,4.6,14.4,17.3,12.1
	C530.2,558,598,463.1,598,352.2C598,213.5,485.5,108.2,346.8,108.2z M199.2,453.1c-1.3,1-1,3.3,0.7,5.2c1.6,1.6,3.9,2.3,5.2,1
	c1.3-1,1-3.3-0.7-5.2C202.8,452.5,200.5,451.8,199.2,453.1z M188.4,445c-0.7,1.3,0.3,2.9,2.3,3.9c1.6,1,3.6,0.7,4.3-0.7
	c0.7-1.3-0.3-2.9-2.3-3.9C190.7,443.7,189.1,444,188.4,445z M220.8,480.6c-1.6,1.3-1,4.3,1.3,6.2c2.3,2.3,5.2,2.6,6.5,1
	c1.3-1.3,0.7-4.3-1.3-6.2C225.1,479.3,222.1,479,220.8,480.6z M209.4,465.9c-1.6,1-1.6,3.6,0,5.9s4.3,3.3,5.6,2.3
	c1.6-1.3,1.6-3.9,0-6.2C213.6,465.6,211,464.6,209.4,465.9L209.4,465.9z"/>
<path class="st0" d="M350,102c-136.7,0-248,111.3-248,248s111.3,248,248,248s248-111.3,248-248S486.7,102,350,102z M514,216.4
	c29.5,36,47.4,82,47.8,132c-7-1.5-77-15.7-147.5-6.8c-5.8-14-11.2-26.4-18.6-41.6C474,267.9,509.5,222.4,514,216.4L514,216.4z
	 M490.4,191.9c-3.8,5.4-35.7,48.3-111,76.5c-34.7-63.8-73.2-116.2-79-124C367.5,128.2,438.3,145.7,490.4,191.9z M259.9,158.6
	c5.6,7.7,43.4,60.1,78.5,122.5c-99.1,26.3-186.4,25.9-195.8,25.8C156.4,241.2,200.7,186.6,259.9,158.6z M138.2,350.3
	c0-2.2,0-4.3,0.1-6.5c9.3,0.2,111.9,1.5,217.7-30.1c6.1,11.9,11.9,23.9,17.2,35.9C296.6,371.2,227,433.2,192.6,492
	C158.8,454.4,138.2,404.7,138.2,350.3z M220,517.4c22.1-45.2,82.2-103.6,167.6-132.8c29.7,77.3,42,142.1,45.2,160.6
	C364.6,574.3,282.7,566.4,220,517.4z M468.4,525.9c-2.2-12.9-13.4-74.9-41.2-151c66.4-10.6,124.7,6.8,131.9,9.1
	C549.7,442.9,515.9,493.8,468.4,525.9z"/>
<path class="st1" d="M350,0C156.7,0,0,156.7,0,350s156.7,350,350,350s350-156.7,350-350S543.3,0,350,0z M591.9,166.2l-38.6,37
	c-3.3,2.5-5,6.7-4.3,10.8v272c-0.7,4.1,1,8.3,4.3,10.8l37.7,37v8.1H401.2v-8.1l39.1-37.9c3.8-3.8,3.8-5,3.8-10.8V265.3L335.5,541.2
	h-14.7L194.3,265.3v184.9c-1.1,7.8,1.5,15.6,7,21.2l50.8,61.6v8.1h-144v-8l50.8-61.7c5.4-5.6,7.9-13.5,6.5-21.2V236.4
	c0.6-5.9-1.7-11.8-6.1-15.8l-45.1-54.4v-8.1h140.2l108.4,237.7l95.3-237.7h133.7V166.2z"/>
</svg>
